<?xml version="1.0" encoding="UTF-8"?>
<svg width="100pt" height="100pt" version="1.1" viewBox="0 0 100 100" xmlns="http://www.w3.org/2000/svg">
 <g fill="#808080">
  <path d="m70 25h-16v-8h-8v8h-16c-6.6289 0-12 5.3711-12 12v34c0 6.6289 5.3711 12 12 12h40c6.6289 0 12-5.3711 12-12v-34c0-6.6289-5.3711-12-12-12zm4 46c0 1.0625-0.42188 2.0781-1.1719 2.8281s-1.7656 1.1719-2.8281 1.1719h-40c-2.2109 0-4-1.7891-4-4v-34c0-2.2109 1.7891-4 4-4h40c1.0625 0 2.0781 0.42188 2.8281 1.1719s1.1719 1.7656 1.1719 2.8281z"/>
  <path d="m40.832 44.176c3.7734 3.7695-1.8867 9.4297-5.6562 5.6562-3.7695-3.7695 1.8867-9.4258 5.6562-5.6562"/>
  <path d="m64.832 44.176c3.7734 3.7695-1.8828 9.4258-5.6562 5.6562-3.7695-3.7695 1.8867-9.4297 5.6562-5.6562"/>
  <path d="m50 59c-2.5469-0.011719-4.9727-1.1016-6.6719-3l-6 5.3203c3.2109 3.6133 7.8125 5.6836 12.648 5.6836 4.832 0 9.4336-2.0703 12.645-5.6836l-6-5.3203c-1.6875 1.8867-4.0898 2.9766-6.6211 3z"/>
 </g>
</svg>
