<?xml version="1.0" encoding="UTF-8"?>
<svg width="100pt" height="100pt" version="1.1" viewBox="0 0 100 100" xmlns="http://www.w3.org/2000/svg">
 <g fill="#c2185b">
  <path d="m59.809 42.449c0 5.418-4.3906 9.8125-9.8086 9.8125s-9.8086-4.3945-9.8086-9.8125 4.3906-9.8086 9.8086-9.8086 9.8086 4.3906 9.8086 9.8086"/>
  <path d="m74.25 66.18-9.6406-6.4883c-2.4375-1.6328-5.3047-2.5078-8.2383-2.5117h-12.742c-2.9336 0.003906-5.8008 0.87891-8.2383 2.5117l-9.6406 6.4883-9.4492-11.102-5 4.0781 10 15.238v0.003907c0.86328 1.3086 2.3242 2.0977 3.8906 2.1016 0.44141 0 0.88281-0.0625 1.3086-0.19141l11.371-3.3086-1.7422 20.91h27.742l-1.7422-20.91 11.309 3.2891h0.003906c0.42188 0.12891 0.86328 0.19141 1.3086 0.19141 1.5664-0.003907 3.0273-0.79297 3.8906-2.1016l10-15.238-5-4.0781z"/>
  <path d="m55 10c0 6.668-10 6.668-10 0s10-6.668 10 0"/>
  <path d="m30 18.609c0 6.668-10 6.668-10 0s10-6.668 10 0"/>
  <path d="m17.789 40c0 6.668-10 6.668-10 0s10-6.668 10 0"/>
  <path d="m80 18.609c0 6.668-10 6.668-10 0s10-6.668 10 0"/>
  <path d="m92.211 40c0 6.668-10 6.668-10 0s10-6.668 10 0"/>
 </g>
</svg>
